<svg width="100" height="115" viewBox="0 0 100 115" fill="none" xmlns="http://www.w3.org/2000/svg">
<path d="M27.5598 28.867C19.4489 33.6542 12.6776 40.376 7.86363 48.4193C3.04967 56.4625 0.346263 65.5712 0 74.9144C0.00895141 82.2206 2.033 89.3855 5.8537 95.6361C9.6744 101.887 15.1466 106.985 21.6798 110.382C28.2152 113.775 35.5625 115.337 42.9288 114.899C50.2952 114.461 57.4007 112.039 63.4786 107.895C69.5564 103.749 74.3737 98.0361 77.4092 91.375C80.4448 84.7139 81.5832 77.3578 80.7013 70.1023C79.8268 62.847 76.9652 55.9667 72.4262 50.2056C67.8872 44.4445 61.8435 40.022 54.949 37.4166C50.3887 35.5869 45.5068 34.6719 40.5866 34.7249C31.8188 40.5739 24.7839 48.631 20.2062 58.0666C23.0795 54.6705 26.7723 52.0477 30.9422 50.4413C35.1122 48.8349 39.6242 48.2969 44.0601 48.8773C48.5006 49.4527 52.722 51.1307 56.3316 53.7553C59.9412 56.3799 62.8218 59.8657 64.7055 63.8886C66.5895 67.9095 67.4199 72.3357 67.1198 76.7583C66.8198 81.1809 65.399 85.4573 62.9886 89.1926C60.5674 92.9213 57.2373 95.9867 53.3053 98.1063C49.3732 100.226 44.9656 101.332 40.4885 101.322C36.6338 101.325 32.8242 100.5 29.3225 98.9047C25.8209 97.3089 22.7105 94.9799 20.2062 92.0784C16.9663 88.4999 14.5915 84.2383 13.2614 79.6164C11.9314 74.9945 11.6811 70.1335 12.5295 65.4016C17.7271 34.6494 54.949 16.9247 82.5124 10.057C69.7541 16.132 57.4701 23.1389 45.7624 31.0196C79.0715 43.7453 84.4216 15.9867 100 3.55935C84.4978 -2.44949 27.636 -4.65968 27.5562 28.8849L27.5598 28.867Z" fill="#F9941E"/>
</svg>
