<svg width="161" height="48" viewBox="0 0 161 48" fill="none" xmlns="http://www.w3.org/2000/svg">
<path d="M45.6871 8.29353C43.418 9.63283 41.5235 11.5133 40.1769 13.7635C38.83 16.0136 38.0738 18.5619 37.9771 21.1757C37.9796 23.2197 38.5456 25.2241 39.6145 26.9728C40.6835 28.7213 42.2144 30.1479 44.042 31.0979C45.8703 32.0473 47.926 32.4843 49.9867 32.3617C52.0474 32.2392 54.0353 31.5615 55.7356 30.4023C57.4359 29.2424 58.7836 27.6442 59.6329 25.7807C60.482 23.9172 60.8006 21.8592 60.5538 19.8295C60.3092 17.7998 59.5087 15.8749 58.2386 14.2632C56.9689 12.6515 55.2781 11.4143 53.3495 10.6854C52.0735 10.1735 50.7078 9.91753 49.3315 9.93234C46.8786 11.5687 44.9104 13.8227 43.6297 16.4624C44.4336 15.5123 45.4666 14.7785 46.6332 14.3292C47.7997 13.8797 49.0622 13.7292 50.3031 13.8916C51.5454 14.0526 52.7262 14.522 53.7363 15.2563C54.746 15.9905 55.5519 16.9657 56.0789 18.0911C56.6059 19.216 56.8382 20.4543 56.7543 21.6915C56.6704 22.9288 56.2727 24.1252 55.5984 25.1701C54.921 26.2133 53.9895 27.0708 52.8895 27.6638C51.7894 28.2568 50.5564 28.5662 49.304 28.5634C48.2255 28.5642 47.1597 28.3337 46.1802 27.8872C45.2005 27.4408 44.3304 26.7892 43.6297 25.9775C42.7235 24.9764 42.059 23.7841 41.6871 22.4911C41.3149 21.1981 41.2447 19.8382 41.4823 18.5144C42.9364 9.91122 53.3495 4.95261 61.0604 3.0313C57.4911 4.73083 54.0546 6.69108 50.7794 8.89577C60.098 12.4559 61.5947 4.69019 65.9529 1.21353C61.616 -0.467493 45.7084 -1.08581 45.686 8.29858L45.6871 8.29353Z" fill="#F9941E"/>
<path d="M17.0486 32.0595H7.51205C6.59578 32.0595 5.75432 31.91 4.98766 31.6107C4.23969 31.3115 3.59457 30.8907 3.0523 30.3485C2.51001 29.8064 2.08928 29.1612 1.79009 28.4132C1.4909 27.6465 1.34131 26.8051 1.34131 25.8888V14.9217C1.34131 14.0054 1.4909 13.1733 1.79009 12.4254C2.08928 11.6587 2.51001 11.0042 3.0523 10.462C3.59457 9.91968 4.23969 9.49895 4.98766 9.19976C5.75432 8.90056 6.59578 8.75098 7.51205 8.75098H17.0486V12.8181H8.21327C7.50269 12.8181 6.95108 13.0144 6.5584 13.4071C6.16571 13.7998 5.96937 14.3514 5.96937 15.062V25.7485C5.96937 26.4591 6.16571 27.0107 6.5584 27.4034C6.95108 27.7961 7.50269 27.9924 8.21327 27.9924H17.0486V32.0595ZM36.9534 32.0595H32.3253V21.7937H24.1912V32.0595H19.5632V8.75098H24.1912V17.7827H32.3253V8.75098H36.9534V32.0595ZM79.1603 30.6571C79.1603 31.2181 79.0667 31.5919 78.8798 31.779C78.6928 31.9661 78.3189 32.0595 77.7579 32.0595H75.1774C74.6537 32.0595 74.2142 31.9566 73.8591 31.751C73.5037 31.5639 73.1952 31.1993 72.9335 30.6571L66.5384 16.3241V32.0595H61.9103V10.1534C61.9103 9.59244 62.0037 9.21847 62.1908 9.03146C62.3776 8.84446 62.7518 8.75098 63.3128 8.75098H65.753C66.8562 8.75098 67.6042 9.21847 67.9969 10.1534L74.5323 25.0473V8.75098H79.1603V30.6571ZM99.4287 26.3937C99.4287 27.2725 99.2789 28.0673 98.9799 28.7778C98.6994 29.4698 98.2879 30.0588 97.7457 30.5449C97.2221 31.031 96.577 31.4051 95.8104 31.6668C95.0435 31.9285 94.1928 32.0595 93.2579 32.0595H82.2348V8.75098H92.8933C94.8752 8.75098 96.3994 9.21847 97.4653 10.1534C98.5311 11.0697 99.064 12.3786 99.064 14.0802V15.6229C99.064 16.8197 98.8489 17.764 98.4189 18.4559C97.9886 19.1477 97.325 19.6526 96.4274 19.9705C97.4745 20.1388 98.2318 20.6156 98.6994 21.401C99.1855 22.1863 99.4287 23.112 99.4287 24.1778V26.3937ZM92.7811 27.9924C94.1274 27.9924 94.8006 27.2351 94.8006 25.7205V24.29C94.8006 23.6168 94.6228 23.0465 94.2677 22.579C93.9123 22.0929 93.3513 21.8498 92.5848 21.8498H86.8628V27.9924H92.7811ZM92.1921 18.0912C93.6879 18.0912 94.436 17.39 94.436 15.9876V14.8376C94.436 14.127 94.2582 13.6128 93.9031 13.2949C93.5665 12.977 93.0801 12.8181 92.4445 12.8181H86.8628V18.0912H92.1921ZM120.132 32.0595H115.392L114.326 27.0668H106.416L105.294 32.0595H100.554L105.238 12.1168C105.519 10.9201 105.939 10.0599 106.5 9.53634C107.061 9.01276 107.95 8.75098 109.165 8.75098H111.802C113.017 8.75098 113.905 9.01276 114.466 9.53634C115.046 10.0599 115.467 10.9201 115.728 12.1168L120.132 32.0595ZM113.484 23.0559L111.605 14.1363C111.512 13.6876 111.381 13.3603 111.213 13.1546C111.044 12.9302 110.801 12.8181 110.483 12.8181C110.165 12.8181 109.922 12.9302 109.754 13.1546C109.586 13.3603 109.455 13.6876 109.361 14.1363L107.342 23.0559H113.484ZM139.065 30.6571C139.065 31.2181 138.972 31.5919 138.785 31.779C138.598 31.9661 138.224 32.0595 137.663 32.0595H135.082C134.559 32.0595 134.119 31.9566 133.764 31.751C133.409 31.5639 133.1 31.1993 132.838 30.6571L126.443 16.3241V32.0595H121.815V10.1534C121.815 9.59244 121.909 9.21847 122.096 9.03146C122.283 8.84446 122.657 8.75098 123.218 8.75098H125.658C126.761 8.75098 127.509 9.21847 127.902 10.1534L134.437 25.0473V8.75098H139.065V30.6571ZM159.951 27.8522C159.951 30.6571 158.548 32.0595 155.743 32.0595H146.347C143.542 32.0595 142.14 30.6571 142.14 27.8522V12.9583C142.14 10.1534 143.542 8.75098 146.347 8.75098H158.688V12.8181H147.89C147.459 12.8181 147.16 12.9022 146.992 13.0705C146.842 13.2201 146.768 13.5099 146.768 13.94V27.0107C146.768 27.4408 146.842 27.74 146.992 27.9083C147.16 28.0578 147.459 28.1327 147.89 28.1327H154.201C154.631 28.1327 154.92 28.0578 155.07 27.9083C155.238 27.74 155.323 27.4408 155.323 27.0107V21.2888H150.134V17.2778H159.951V27.8522Z" fill="black"/>
<path d="M36.0813 46.042H33.7673V36.4212H31.0605V34.3877H38.788V36.4212H36.0813V46.042ZM54.4891 46.042H46.916V36.4914C46.916 35.0889 47.6172 34.3877 49.0196 34.3877H54.4891V36.4212H49.791C49.5758 36.4212 49.4263 36.4633 49.3422 36.5475C49.2673 36.6223 49.23 36.7671 49.23 36.9822V38.9035H53.9282V40.909H49.23V44.0084H54.4891V46.042ZM71.9338 46.042H69.3393L67.1515 42.017L64.9356 46.042H62.3411L65.6088 40.1237L62.4533 34.3877H65.0618L67.1515 38.2304L69.3393 34.3877H71.9057L68.6942 40.1237L71.9338 46.042ZM84.3922 46.042H82.0782V36.4212H79.3715V34.3877H87.0989V36.4212H84.3922V46.042ZM97.5406 46.042H95.2266V34.3877H97.5406V46.042ZM113.955 46.042H106.381V34.3877H108.695V44.0084H113.955V46.042ZM130.081 46.042H122.508V36.4914C122.508 35.0889 123.209 34.3877 124.612 34.3877H130.081V36.4212H125.383C125.168 36.4212 125.018 36.4633 124.934 36.5475C124.859 36.6223 124.822 36.7671 124.822 36.9822V38.9035H129.52V40.909H124.822V44.0084H130.081V46.042Z" fill="black"/>
</svg>
