<svg width="125" height="125" viewBox="0 0 125 125" fill="none" xmlns="http://www.w3.org/2000/svg">
<path d="M67.7083 41.6667C71.8523 41.6667 75.8266 43.3129 78.7569 46.2431C81.6871 49.1734 83.3333 53.1477 83.3333 57.2917C83.3333 58.673 83.8821 59.9978 84.8588 60.9745C85.8356 61.9513 87.1603 62.5 88.5417 62.5C89.923 62.5 91.2478 61.9513 92.2245 60.9745C93.2013 59.9978 93.75 58.673 93.75 57.2917C93.75 50.385 91.0063 43.7612 86.1226 38.8774C81.2388 33.9937 74.615 31.25 67.7083 31.25C66.327 31.25 65.0022 31.7987 64.0255 32.7755C63.0487 33.7522 62.5 35.077 62.5 36.4583C62.5 37.8397 63.0487 39.1644 64.0255 40.1412C65.0022 41.1179 66.327 41.6667 67.7083 41.6667V41.6667Z" fill="#333333"/>
<path d="M67.7083 20.8333C77.3776 20.8333 86.6509 24.6744 93.4882 31.5117C100.325 38.349 104.167 47.6223 104.167 57.2916C104.167 58.673 104.715 59.9977 105.692 60.9745C106.669 61.9512 107.994 62.5 109.375 62.5C110.756 62.5 112.081 61.9512 113.058 60.9745C114.035 59.9977 114.583 58.673 114.583 57.2916C114.583 44.8596 109.645 32.9368 100.854 24.146C92.0631 15.3552 80.1403 10.4166 67.7083 10.4166C66.3269 10.4166 65.0022 10.9654 64.0254 11.9421C63.0487 12.9189 62.4999 14.2436 62.4999 15.625C62.4999 17.0063 63.0487 18.3311 64.0254 19.3078C65.0022 20.2846 66.3269 20.8333 67.7083 20.8333ZM113.281 82.8645C112.995 82.0284 112.5 81.279 111.844 80.6867C111.188 80.0945 110.392 79.6789 109.531 79.4791L78.2812 72.3437C77.4329 72.1514 76.55 72.1745 75.713 72.4111C74.8761 72.6476 74.1116 73.09 73.4895 73.6979C72.7604 74.375 72.7083 74.427 69.3229 80.8854C58.0895 75.7091 49.0885 66.6711 43.9583 55.4166C50.5729 52.0833 50.6249 52.0833 51.302 51.302C51.9099 50.6799 52.3523 49.9155 52.5888 49.0785C52.8254 48.2415 52.8485 47.3586 52.6562 46.5104L45.5208 15.625C45.321 14.764 44.9055 13.968 44.3132 13.312C43.7209 12.656 42.9715 12.1614 42.1354 11.875C40.919 11.4405 39.663 11.1265 38.3854 10.9375C37.069 10.6322 35.7256 10.4578 34.3749 10.4166C28.0208 10.4166 21.9269 12.9408 17.4339 17.4339C12.9408 21.9269 10.4166 28.0208 10.4166 34.375C10.4442 55.6391 18.9035 76.0244 33.9395 91.0604C48.9755 106.096 69.3608 114.556 90.6249 114.583C93.7712 114.583 96.8866 113.964 99.7934 112.76C102.7 111.556 105.341 109.791 107.566 107.566C109.791 105.341 111.556 102.7 112.76 99.7934C113.964 96.8867 114.583 93.7712 114.583 90.625C114.585 89.2993 114.48 87.9756 114.271 86.6666C114.052 85.3729 113.721 84.1008 113.281 82.8645Z" fill="#333333"/>
</svg>
