<svg width="36" height="36" viewBox="0 0 36 36" fill="none" xmlns="http://www.w3.org/2000/svg">
<path d="M18 34.875C27.3198 34.875 34.875 27.3198 34.875 18C34.875 8.68019 27.3198 1.125 18 1.125C8.68019 1.125 1.125 8.68019 1.125 18C1.125 27.3198 8.68019 34.875 18 34.875Z" fill="#F9941E"/>
<path d="M25.2563 21.0374C24.9751 21.9937 24.5251 22.7249 23.9626 23.3437L25.8188 25.0874L24.0751 26.9999L22.1063 25.1437C21.4876 25.4812 20.9813 25.7624 20.5313 25.9312C19.8001 26.1561 18.9001 26.3249 17.8876 26.3249C15.7501 26.3249 14.0063 25.7062 12.6001 24.4124C10.9126 22.8937 10.0688 20.6437 10.0688 17.6624C10.0688 14.6812 10.9126 12.4312 12.6563 10.9124C14.0626 9.6749 15.8063 9.05615 17.9438 9.05615C20.0813 9.05615 21.8251 9.73115 23.2313 11.0249C24.8626 12.5437 25.7063 14.6812 25.7063 17.4374C25.7626 18.8437 25.5938 20.0812 25.2563 21.0374ZM19.0688 23.2312C19.2938 23.1749 19.5188 23.0624 19.8563 22.9499L18.1688 21.3749L19.9126 19.5187L21.5438 21.0937C21.8251 20.5874 21.9938 20.0812 22.1063 19.6874C22.2751 19.0687 22.3313 18.3937 22.3313 17.6062C22.3313 15.7499 21.9376 14.3437 21.2063 13.3874C20.4751 12.3749 19.3501 11.8687 17.9438 11.8687C16.5938 11.8687 15.5251 12.3749 14.7376 13.3312C13.9501 14.2874 13.5001 15.7499 13.5001 17.6624C13.5001 19.9124 14.0626 21.4874 15.2438 22.4437C15.9751 23.0624 16.8751 23.3999 17.9438 23.3999C18.3376 23.3999 18.7313 23.3436 19.0688 23.2312Z" fill="white"/>
</svg>
