<svg width="20" height="20" viewBox="0 0 20 20" fill="none" xmlns="http://www.w3.org/2000/svg">
<path d="M8.728 15.795L3.728 7.795C3.58609 7.56794 3.50754 7.30704 3.50052 7.03937C3.49349 6.77171 3.55824 6.50704 3.68804 6.27285C3.81784 6.03865 4.00796 5.84348 4.23866 5.70757C4.46937 5.57167 4.73225 5.5 5 5.5H15C15.2678 5.5 15.5306 5.57167 15.7613 5.70757C15.992 5.84348 16.1822 6.03865 16.312 6.27285C16.4418 6.50704 16.5065 6.77171 16.4995 7.03937C16.4925 7.30704 16.4139 7.56794 16.272 7.795L11.272 15.795C11.1372 16.0107 10.9497 16.1886 10.7272 16.312C10.5046 16.4353 10.2544 16.5 10 16.5C9.74559 16.5 9.49537 16.4353 9.27285 16.312C9.05033 16.1886 8.86284 16.0107 8.728 15.795Z" fill="#333333"/>
</svg>
