<svg width="20" height="20" viewBox="0 0 20 20" fill="none" xmlns="http://www.w3.org/2000/svg">
<path d="M1.66675 10C1.66675 14.6025 5.39758 18.3333 10.0001 18.3333C14.6026 18.3333 18.3334 14.6025 18.3334 10C18.3334 5.39751 14.6026 1.66667 10.0001 1.66667C5.39758 1.66667 1.66675 5.39751 1.66675 10Z" stroke="#333333" stroke-width="1.5" stroke-linecap="round" stroke-linejoin="round"/>
<path d="M10.8333 1.70834C10.8333 1.70834 13.3333 5.00001 13.3333 10C13.3333 15 10.8333 18.2917 10.8333 18.2917M9.16665 18.2917C9.16665 18.2917 6.66665 15 6.66665 10C6.66665 5.00001 9.16665 1.70834 9.16665 1.70834M2.19165 12.9167H17.8083M2.19165 7.08334H17.8083" stroke="#333333" stroke-width="1.5" stroke-linecap="round" stroke-linejoin="round"/>
</svg>
