<svg width="13" height="18" viewBox="0 0 13 18" fill="none" xmlns="http://www.w3.org/2000/svg">
<path d="M0.464548 17.898C0.60475 17.9738 0.762164 18.0084 0.919895 17.9983C1.07763 17.9881 1.22972 17.9336 1.35984 17.8404L12.6269 9.74001C12.742 9.65718 12.8361 9.5466 12.9011 9.41775C12.9661 9.2889 13 9.14562 13 9.00017C13 8.85472 12.9661 8.71143 12.9011 8.58259C12.8361 8.45374 12.742 8.34316 12.6269 8.26033L1.35984 0.159905C1.22982 0.0664733 1.07766 0.0117616 0.919835 0.00169368C0.762014 -0.00837424 0.604549 0.0265854 0.464488 0.102787C0.324427 0.178989 0.207108 0.293529 0.125235 0.434005C0.0433615 0.574482 5.3374e-05 0.735541 1.17724e-08 0.899744V17.1006C-2.60592e-05 17.2649 0.0432507 17.4261 0.12514 17.5666C0.207029 17.7072 0.324406 17.8218 0.464548 17.898Z" fill="white" fill-opacity="0.8"/>
</svg>
